<svg width="251" height="251" viewBox="0 0 251 251" fill="none" xmlns="http://www.w3.org/2000/svg">
<circle cx="125.414" cy="125.311" r="124.797" fill="#E84142"/>
<path fill-rule="evenodd" clip-rule="evenodd" d="M132.87 37.5599C128.546 30.0917 121.667 30.0917 117.344 37.5599L38.8297 175.819C34.506 183.385 38.0436 189.38 46.6909 189.38H86.0953C94.0548 188.888 101.228 184.663 105.552 177.981L153.014 95.7329C156.453 88.6578 156.453 80.3052 153.014 73.2301L138.864 48.369L132.87 37.5599ZM185.043 128.554C180.719 121.085 173.743 121.085 169.419 128.554L142.003 175.819C137.777 183.287 141.315 189.38 149.864 189.38H204.107C212.754 189.38 216.291 183.287 211.968 175.819L185.043 128.554Z" fill="white"/>
</svg>