<svg width="250" height="250" viewBox="0 0 250 250" fill="none" xmlns="http://www.w3.org/2000/svg">
<path d="M246.205 154.965C229.54 221.812 161.835 262.494 94.9796 245.825C28.1525 229.159 -12.5294 161.45 4.14323 94.608C20.8012 27.7535 88.5066 -12.9314 155.341 3.73385C222.191 20.3991 262.871 88.1161 246.204 154.966L246.205 154.965H246.205Z" fill="#F7931A"/>
<path fill-rule="evenodd" clip-rule="evenodd" d="M180.214 107.003C182.698 90.3971 170.055 81.471 152.768 75.5165L158.376 53.0228L144.684 49.611L139.224 71.5124C135.625 70.6146 131.928 69.7686 128.254 68.93L133.753 46.884L120.069 43.4722L114.457 65.9585C111.479 65.2803 108.553 64.61 105.714 63.9037L105.73 63.8329L86.8479 59.1177L83.2055 73.7422C83.2055 73.7422 93.3642 76.0709 93.1501 76.2142C98.6949 77.5981 99.6976 81.2686 99.5311 84.1778L93.1428 109.803C93.5246 109.9 94.0199 110.041 94.5664 110.26C94.4363 110.228 94.3038 110.195 94.1693 110.161L94.1691 110.161C93.8311 110.076 93.4798 109.989 93.119 109.902L84.1649 145.8C83.4873 147.485 81.7673 150.013 77.8907 149.053C78.0279 149.251 67.9387 146.569 67.9387 146.569L61.1406 162.243L78.9593 166.685C80.9105 167.174 82.8386 167.677 84.7472 168.174C86.0812 168.522 87.4055 168.867 88.7216 169.204L83.0555 191.955L96.7322 195.367L102.343 172.857C106.08 173.871 109.706 174.807 113.255 175.689L107.663 198.093L121.356 201.505L127.022 178.796C150.37 183.214 167.927 181.433 175.317 160.314C181.271 143.311 175.02 133.503 162.736 127.108C171.683 125.045 178.422 119.16 180.219 107.004L180.215 107.001L180.214 107.003ZM148.942 150.872C145.059 166.472 120.641 160.023 109.469 157.072C108.464 156.807 107.566 156.569 106.8 156.379L114.319 126.237C115.253 126.47 116.394 126.726 117.686 127.016C129.242 129.61 152.919 134.923 148.942 150.872H148.942ZM119.97 113.026C129.285 115.511 149.604 120.934 153.142 106.756H153.144C156.757 92.2549 137.01 87.8829 127.366 85.7477C126.281 85.5075 125.324 85.2956 124.542 85.1008L117.725 112.438C118.369 112.598 119.124 112.8 119.97 113.026Z" fill="white"/>
</svg>