<svg width="250" height="251" viewBox="0 0 250 251" fill="none" xmlns="http://www.w3.org/2000/svg">
<circle cx="124.811" cy="125.405" r="124.78" fill="black"/>
<path d="M77.3366 154.962C78.2013 154.097 79.3903 153.593 80.6513 153.593H195.007C197.097 153.593 198.142 156.115 196.664 157.592L174.074 180.182C173.21 181.047 172.021 181.551 170.76 181.551H56.4038C54.3142 181.551 53.2693 179.029 54.7465 177.552L77.3366 154.962Z" fill="url(#paint0_linear_569_2171)"/>
<path d="M77.3366 70.6196C78.2374 69.7549 79.4263 69.2505 80.6513 69.2505H195.007C197.097 69.2505 198.142 71.7725 196.664 73.2497L174.074 95.8398C173.21 96.7045 172.021 97.2089 170.76 97.2089H56.4038C54.3142 97.2089 53.2693 94.6869 54.7465 93.2097L77.3366 70.6196Z" fill="url(#paint1_linear_569_2171)"/>
<path d="M174.074 112.521C173.21 111.657 172.021 111.152 170.76 111.152H56.4038C54.3142 111.152 53.2693 113.674 54.7465 115.151L77.3366 137.741C78.2013 138.606 79.3903 139.111 80.6513 139.111H195.007C197.097 139.111 198.142 136.589 196.664 135.111L174.074 112.521Z" fill="url(#paint2_linear_569_2171)"/>
<defs>
<linearGradient id="paint0_linear_569_2171" x1="-204.409" y1="48.034" x2="-207.452" y2="201.138" gradientUnits="userSpaceOnUse">
<stop stop-color="#00FFA3"/>
<stop offset="1" stop-color="#DC1FFF"/>
</linearGradient>
<linearGradient id="paint1_linear_569_2171" x1="-239.015" y1="29.9681" x2="-242.058" y2="183.072" gradientUnits="userSpaceOnUse">
<stop stop-color="#00FFA3"/>
<stop offset="1" stop-color="#DC1FFF"/>
</linearGradient>
<linearGradient id="paint2_linear_569_2171" x1="-221.822" y1="38.9441" x2="-224.865" y2="192.048" gradientUnits="userSpaceOnUse">
<stop stop-color="#00FFA3"/>
<stop offset="1" stop-color="#DC1FFF"/>
</linearGradient>
</defs>
</svg>